<?xml version="1.0" encoding="utf-8"?>
<!-- Generator: Adobe Illustrator 24.1.1, SVG Export Plug-In . SVG Version: 6.00 Build 0)  -->
<svg version="1.1" id="Capa_1" xmlns="http://www.w3.org/2000/svg" xmlns:xlink="http://www.w3.org/1999/xlink" x="0px" y="0px"
	 viewBox="0 0 1300 438.9" style="enable-background:new 0 0 1300 438.9;" xml:space="preserve">
<style type="text/css">
	.st0{fill:#C19C00;}
	.st1{fill:#13A10E;}
	.st2{fill:#C50F1F;}
	.st3{font-family:'Calibri';}
	.st4{font-size:280px;fill:#f8f8f2;}
	.notebook{fill:#f8f8f2}
</style>
<path class="notebook" d="M348,57.5h-39.7V39.7c0-5.7-6.3-8.4-12-8.4h-30.8C258.1,10.5,239.8,0,218.9,0c-20.7-0.8-39.5,11.9-46.5,31.3h-30.3
	c-5.7,0-11.5,2.6-11.5,8.4v17.8H90.9C67.4,57.8,48.1,76.3,47,99.8v299.4c0,23,20.9,39.7,43.9,39.7h257c23,0,43.9-16.7,43.9-39.7
	V99.8C390.7,76.3,371.5,57.8,348,57.5z M151.5,52.3h28.7c5-0.6,9-4.4,9.9-9.4c3.1-13.5,14.9-23.1,28.7-23.5
	c13.7,0.4,25.3,10.1,28.2,23.5c0.9,5.1,5.2,9,10.4,9.4h29.8v41.8H151.5V52.3z M371,399.2c0,11.5-11.5,18.8-23,18.8H91
	c-11.5,0-23-7.3-23-18.8V99.8c1.1-12,11-21.2,23-21.4h39.7V105c0.6,5.9,5.6,10.2,11.5,9.9h154.1c6,0.3,11.2-4,12-9.9V78.4H348
	c12,0.2,21.9,9.5,23,21.4V399.2L371,399.2z"/>
<path class="st0" d="M179.2,233.6c-3.9-4.1-10.4-4.4-14.6-0.5L131.2,265L117,250.3c-3.9-4.1-10.4-4.4-14.6-0.5c-4,4.2-4,10.9,0,15.2
	l21.4,21.9c1.9,2.1,4.5,3.2,7.3,3.1c2.8,0,5.4-1.2,7.3-3.1l40.8-38.7c4-3.7,4.3-10,0.6-14C179.6,234,179.4,233.8,179.2,233.6z"/>
<path class="notebook" d="M329.2,256H209c-5.8,0-10.4,4.7-10.4,10.4s4.7,10.4,10.4,10.4h120.2c5.8,0,10.4-4.7,10.4-10.4S334.9,256,329.2,256z"/>
<path class="st1" d="M179.2,150c-3.9-4.1-10.4-4.4-14.6-0.5l-33.4,31.9L117,166.7c-3.9-4.1-10.4-4.4-14.6-0.5c-4,4.2-4,10.9,0,15.2
	l21.4,21.9c1.9,2.1,4.5,3.2,7.3,3.1c2.8,0,5.4-1.2,7.3-3.1l40.8-38.7c4-3.7,4.3-10,0.6-14C179.6,150.4,179.4,150.2,179.2,150z"/>
<path class="notebook" d="M329.2,172.4H209c-5.8,0-10.4,4.7-10.4,10.4s4.7,10.4,10.4,10.4h120.2c5.8,0,10.4-4.7,10.4-10.4S334.9,172.4,329.2,172.4z"
	/>
<path class="st2" d="M179.2,317.2c-3.9-4.1-10.4-4.4-14.6-0.5l-33.4,31.9L117,333.9c-3.9-4.1-10.4-4.4-14.6-0.5
	c-4,4.2-4,10.9,0,15.2l21.4,21.9c1.9,2.1,4.5,3.2,7.3,3.1c2.8,0,5.4-1.2,7.3-3.1l40.8-38.7c4-3.7,4.3-10,0.6-14
	C179.6,317.6,179.4,317.4,179.2,317.2z"/>
<path class="notebook" d="M329.2,339.6H209c-5.8,0-10.4,4.7-10.4,10.4s4.7,10.4,10.4,10.4h120.2c5.8,0,10.4-4.7,10.4-10.4S334.9,339.6,329.2,339.6z"
	/>
<text transform="matrix(1 0 0 1 451.8002 294.1808)" class="st3 st4">pytask</text>
</svg>
