<svg id="Ebene_1" data-name="Ebene 1" xmlns="http://www.w3.org/2000/svg" viewBox="0 0 149.25 150"><path d="M149.19,75.37c0,24,0,48,.06,71.94,0,2.22-.44,2.69-2.68,2.69q-71.94-.12-143.88,0C.47,150,0,149.57,0,147.32Q.12,75,0,2.69C0,.47.43,0,2.68,0Q74.62.12,146.56,0c2.22,0,2.7.43,2.69,2.68C149.15,26.91,149.19,51.14,149.19,75.37Zm-3,0c0-22.73-.05-45.45.07-68.17,0-2.92-.74-3.74-3.71-3.74q-68,.15-135.94,0c-3,0-3.69.85-3.68,3.75q.13,68.16,0,136.32c0,2.85.76,3.47,3.51,3.46q68.16-.13,136.32,0c2.77,0,3.53-.62,3.51-3.46C146.13,120.81,146.18,98.09,146.18,75.37Z" style="fill:#0c0a02"/><path d="M146.18,75.37c0,22.72-.05,45.44.07,68.16,0,2.84-.74,3.47-3.51,3.46q-68.16-.13-136.32,0c-2.75,0-3.52-.61-3.51-3.46q.15-68.16,0-136.32c0-2.9.68-3.75,3.68-3.75q68,.15,135.94,0c3,0,3.72.82,3.71,3.74C146.13,29.92,146.18,52.64,146.18,75.37ZM48.69,41.62a13,13,0,0,1,2.36,4.66c1.3,5.7,2.76,11.37,4.17,17C57,70.57,57,70.57,64.6,70.57c5.84,0,6-.19,7.37-6q5.18-21,10.49-42c1.15-4.54.58-6.59-2.32-7.29-5.81-1.41-9.34,0-10.46,4.4-1.72,6.76-3.39,13.53-5.1,20.29-.26,1,0,2.65-1.36,2.74-1.57.11-1.22-1.66-1.46-2.58-1.69-6.51-3.25-13.06-4.82-19.6-1.17-4.89-1.68-5.31-6.87-5.32-1,0-2,.05-3,0-3-.18-4.49,1.06-5.18,4.09C40,27.54,37.79,35.76,35.45,45c-.54-1.49-.78-2-.92-2.57-2-7.84-4-15.68-5.88-23.56-.49-2.08-1.42-3.72-3.56-3.62-3.1.15-6.64-1.47-9.18,1.5a4.42,4.42,0,0,0-.4,4.93,12.79,12.79,0,0,1,1.11,3.1q5.22,21,10.46,42.05c.44,1.76,1.06,3.29,3.17,3.7,9,1.74,11.24.26,13.39-8.69C45.23,55.24,46.93,48.65,48.69,41.62ZM128,70.57c7.21.69,7.26-2.38,5.32-7.48-5.54-14.63-11.5-29.1-16.75-43.83-1.71-4.81-4.92-3.89-8.28-4.13s-5.58.48-6.91,4.08C95.52,35,89.41,50.58,83.51,66.29c-.83,2.2-.08,3.9,2.62,4.24,9,1.11,9.92.54,12.81-8.09a12.7,12.7,0,0,0,.57-1.78c.4-2,1.53-2.81,3.68-2.71a107.86,107.86,0,0,0,11.23,0c2.67-.16,3.69.86,4.21,3.43C120.2,69.14,121.79,70.57,128,70.57ZM90.35,105c0,6.86.09,13.73,0,20.59-.11,6.26.47,8.44,8.09,7.91,3.69-.26,5.11-1.47,5.15-5.22,0-4,0-8,0-12,0-6.73,0-6.73,6.55-6.72,2.87,0,5.74-.05,8.61,0s4.36-1.36,4.23-4.33c0-1.25,0-2.5,0-3.75,0-2.8-1.33-4.09-4.13-4.06-4.24,0-8.49-.15-12.73,0-3.59.17-2.38-2.33-2.5-4s-.59-3.77,2.59-3.59c4.6.26,9.23.08,13.85.05,4.28,0,5-.8,5-5.42.06-5.91-.5-6.81-4.78-6.84-8.36-.06-16.72.06-25.08,0-3.54,0-5,1.47-4.9,4.94C90.42,90,90.35,97.48,90.35,105ZM47.5,134.92c6.49,0,13,0,19.48,0,2.47,0,3.66-.79,3.68-3.44s-1.44-3.35-3.8-3.3c-3.61.08-7.24,0-10.86,0-5.85,0-5.76,0-5.63-5.84.05-1.93.58-2.63,2.56-2.59,4.49.12,9,0,13.48.06,2.66,0,3.37-1.22,3.39-3.7S68.58,113,66.34,113c-4.37.06-8.74,0-13.11,0-.85,0-1.8.24-2.47-.51-1.53-1.69.13-8.19,2.31-9.15,7.86-3.44,10-12.2,4.45-18-3.65-3.83-10.57-5-15.87-2.65A11,11,0,0,0,34.7,92.76c-.21,4.08,3.33,9.23,7.37,10.58a2,2,0,0,1,1.69,2.34,21.44,21.44,0,0,0,0,3c.46,3.27-.54,4.76-4.18,4.4-3.47-.34-7,0-10.48-.1-2.83-.09-3.63,1.25-3.63,3.89s1.26,3.1,3.5,3c3.11-.13,6.24-.09,9.36,0,6.12.16,5.21-1.38,5.46,5.58.09,2.42-.8,2.93-3,2.85-4.11-.16-8.24,0-12.36-.06-2.37-.05-3.79.6-3.78,3.34S26,135,28.4,135C34.77,134.88,41.14,134.93,47.5,134.92Z" style="fill:#f0de02"/><path d="M48.69,41.62c-1.76,7-3.46,13.62-5,20.23-2.15,8.95-4.41,10.43-13.39,8.69-2.11-.41-2.73-1.94-3.17-3.7q-5.23-21-10.46-42.05a12.79,12.79,0,0,0-1.11-3.1,4.42,4.42,0,0,1,.4-4.93c2.54-3,6.08-1.35,9.18-1.5,2.14-.1,3.07,1.54,3.56,3.62,1.87,7.88,3.9,15.72,5.88,23.56.14.55.38,1.08.92,2.57,2.34-9.25,4.54-17.47,6.44-25.77.69-3,2.22-4.27,5.18-4.09,1,.06,2,0,3,0,5.19,0,5.7.43,6.87,5.32,1.57,6.54,3.13,13.09,4.82,19.6.24.92-.11,2.69,1.46,2.58,1.38-.09,1.1-1.71,1.36-2.74,1.71-6.76,3.38-13.53,5.1-20.29,1.12-4.35,4.65-5.81,10.46-4.4,2.9.7,3.47,2.75,2.32,7.29Q77.15,43.52,72,64.57c-1.42,5.81-1.53,6-7.37,6-7.56,0-7.57,0-9.38-7.24-1.41-5.68-2.87-11.35-4.17-17A13,13,0,0,0,48.69,41.62Z" style="fill:#050402"/><path d="M128,70.57c-6.16,0-7.75-1.43-9.32-9.19-.52-2.57-1.54-3.59-4.21-3.43a107.86,107.86,0,0,1-11.23,0c-2.15-.1-3.28.66-3.68,2.71a12.7,12.7,0,0,1-.57,1.78c-2.89,8.63-3.82,9.2-12.81,8.09-2.7-.34-3.45-2-2.62-4.24,5.9-15.71,12-31.34,17.82-47.08,1.33-3.6,3.59-4.32,6.91-4.08s6.57-.68,8.28,4.13c5.25,14.73,11.21,29.2,16.75,43.83C135.21,68.19,135.16,71.26,128,70.57ZM108.88,35.06c-1.35,3.61-2.34,6.25-3.31,8.88-.2.55-.64,1.08-.2,1.71,8.1.86,8.11.85,5.3-6.55C110.28,38.08,109.78,37.09,108.88,35.06Z" style="fill:#050402"/><path d="M90.35,105c0-7.49.07-15,0-22.47,0-3.47,1.36-5,4.9-4.94,8.36.11,16.72,0,25.08,0,4.28,0,4.84.93,4.78,6.84-.06,4.62-.76,5.4-5,5.42-4.62,0-9.25.21-13.85-.05-3.18-.18-2.71,1.78-2.59,3.59s-1.09,4.22,2.5,4c4.24-.2,8.49,0,12.73,0,2.8,0,4.17,1.26,4.13,4.06,0,1.25,0,2.5,0,3.75.13,3-1.22,4.4-4.23,4.33s-5.74,0-8.61,0c-6.55,0-6.55,0-6.55,6.72,0,4,0,8,0,12,0,3.75-1.46,5-5.15,5.22-7.62.53-8.2-1.65-8.09-7.91C90.44,118.7,90.35,111.83,90.35,105Z" style="fill:#050402"/><path d="M47.5,134.93c-6.36,0-12.73-.05-19.1,0-2.43,0-3.73-.7-3.73-3.39s1.41-3.39,3.78-3.34c4.12.07,8.25-.1,12.36.06,2.2.08,3.09-.43,3-2.85-.25-7,.66-5.42-5.46-5.58-3.12-.07-6.25-.11-9.36,0-2.24.1-3.49-.36-3.5-3s.8-4,3.63-3.89c3.49.1,7-.24,10.48.1,3.64.36,4.64-1.13,4.18-4.4a21.44,21.44,0,0,1,0-3,2,2,0,0,0-1.69-2.34c-4-1.35-7.58-6.5-7.37-10.58a11,11,0,0,1,6.95-10.11C47,80.3,53.87,81.47,57.52,85.3c5.57,5.84,3.41,14.6-4.45,18-2.18,1-3.84,7.46-2.31,9.15.67.75,1.62.51,2.47.51,4.37,0,8.74,0,13.11,0,2.24,0,3.47.58,3.46,3.17s-.73,3.75-3.39,3.7c-4.5-.08-9,.06-13.48-.06-2,0-2.51.66-2.56,2.59-.13,5.84-.22,5.84,5.63,5.84,3.62,0,7.25.06,10.86,0,2.36-.05,3.81.52,3.8,3.3S69.45,135,67,135C60.48,134.87,54,134.92,47.5,134.93Z" style="fill:#050402"/><path d="M108.88,35.06c.9,2,1.4,3,1.79,4,2.81,7.4,2.8,7.41-5.3,6.55-.44-.63,0-1.16.2-1.71C106.54,41.31,107.53,38.67,108.88,35.06Z" style="fill:#f0de02"/></svg>
